<mxfile host="app.diagrams.net" modified="2021-12-28T03:17:49.164Z" agent="5.0 (Windows NT 10.0; Win64; x64) AppleWebKit/537.36 (KHTML, like Gecko) Chrome/96.0.4664.93 Safari/537.36 Edg/96.0.1054.53" etag="45-LMhHdnnooUYIv8ECZ" version="16.1.0" type="github">
  <diagram name="Page-1" id="c7558073-3199-34d8-9f00-42111426c3f3">
    <mxGraphModel dx="2062" dy="1154" grid="1" gridSize="10" guides="1" tooltips="1" connect="1" arrows="1" fold="1" page="1" pageScale="1" pageWidth="826" pageHeight="1169" background="none" math="0" shadow="0">
      <root>
        <mxCell id="0" />
        <mxCell id="1" parent="0" />
        <mxCell id="p3UyyKOe3Jx8IRQknLva-96" value="" style="rounded=0;whiteSpace=wrap;html=1;strokeWidth=2;dashed=1;" vertex="1" parent="1">
          <mxGeometry x="230" y="750" width="580" height="240" as="geometry" />
        </mxCell>
        <mxCell id="8" value="&lt;p style=&quot;margin: 0px ; margin-top: 4px ; text-align: center ; text-decoration: underline&quot;&gt;Container1&lt;/p&gt;" style="verticalAlign=middle;align=center;overflow=fill;fontSize=12;fontFamily=Helvetica;html=1;rounded=1;fontStyle=1;strokeWidth=3;fillColor=#E6FFCC" parent="1" vertex="1">
          <mxGeometry x="246" y="770" width="110" height="90" as="geometry" />
        </mxCell>
        <mxCell id="p3UyyKOe3Jx8IRQknLva-97" value="&lt;p style=&quot;margin: 0px ; margin-top: 4px ; text-align: center ; text-decoration: underline&quot;&gt;Container2&lt;/p&gt;" style="verticalAlign=middle;align=center;overflow=fill;fontSize=12;fontFamily=Helvetica;html=1;rounded=1;fontStyle=1;strokeWidth=3;fillColor=#E6FFCC" vertex="1" parent="1">
          <mxGeometry x="380" y="770" width="110" height="90" as="geometry" />
        </mxCell>
        <mxCell id="p3UyyKOe3Jx8IRQknLva-98" value="&lt;p style=&quot;margin: 0px ; margin-top: 4px ; text-align: center ; text-decoration: underline&quot;&gt;Container3&lt;/p&gt;" style="verticalAlign=middle;align=center;overflow=fill;fontSize=12;fontFamily=Helvetica;html=1;rounded=1;fontStyle=1;strokeWidth=3;fillColor=#E6FFCC" vertex="1" parent="1">
          <mxGeometry x="515" y="770" width="110" height="90" as="geometry" />
        </mxCell>
        <mxCell id="p3UyyKOe3Jx8IRQknLva-99" value="&lt;p style=&quot;margin: 0px ; margin-top: 4px ; text-align: center ; text-decoration: underline&quot;&gt;Container4&lt;/p&gt;" style="verticalAlign=middle;align=center;overflow=fill;fontSize=12;fontFamily=Helvetica;html=1;rounded=1;fontStyle=1;strokeWidth=3;fillColor=#E6FFCC" vertex="1" parent="1">
          <mxGeometry x="246" y="885" width="110" height="90" as="geometry" />
        </mxCell>
        <mxCell id="p3UyyKOe3Jx8IRQknLva-100" value="&lt;p style=&quot;margin: 0px ; margin-top: 4px ; text-align: center ; text-decoration: underline&quot;&gt;Container5&lt;/p&gt;" style="verticalAlign=middle;align=center;overflow=fill;fontSize=12;fontFamily=Helvetica;html=1;rounded=1;fontStyle=1;strokeWidth=3;fillColor=#E6FFCC" vertex="1" parent="1">
          <mxGeometry x="515" y="885" width="110" height="90" as="geometry" />
        </mxCell>
        <mxCell id="p3UyyKOe3Jx8IRQknLva-103" value="" style="edgeStyle=orthogonalEdgeStyle;rounded=0;orthogonalLoop=1;jettySize=auto;html=1;strokeWidth=2;shape=flexArrow;" edge="1" parent="1" source="p3UyyKOe3Jx8IRQknLva-101" target="p3UyyKOe3Jx8IRQknLva-102">
          <mxGeometry relative="1" as="geometry" />
        </mxCell>
        <mxCell id="p3UyyKOe3Jx8IRQknLva-101" value="Vulnerable&#xa;Container" style="whiteSpace=wrap;align=center;verticalAlign=middle;fontStyle=1;strokeWidth=3;fillColor=#FFFFCC" vertex="1" parent="1">
          <mxGeometry x="389.9999999999999" y="900" width="90" height="60" as="geometry" />
        </mxCell>
        <mxCell id="p3UyyKOe3Jx8IRQknLva-102" value="&lt;b&gt;Kernel&lt;/b&gt;" style="rounded=1;whiteSpace=wrap;html=1;strokeWidth=2;" vertex="1" parent="1">
          <mxGeometry x="375" y="1030" width="120" height="60" as="geometry" />
        </mxCell>
        <mxCell id="p3UyyKOe3Jx8IRQknLva-104" value="&lt;b&gt;Root Daemon&lt;/b&gt;" style="rounded=0;whiteSpace=wrap;html=1;strokeWidth=3;fillColor=#3399FF;" vertex="1" parent="1">
          <mxGeometry x="655" y="840" width="120" height="60" as="geometry" />
        </mxCell>
      </root>
    </mxGraphModel>
  </diagram>
</mxfile>
